<svg xmlns="http://www.w3.org/2000/svg" viewBox="0 0 1440 50"><path fill="#6c50d3" fill-opacity="0.7" d="M0,160L0,96L36.9,96L36.9,128L73.8,128L73.8,128L110.8,128L110.8,160L147.7,160L147.7,128L184.6,128L184.6,224L221.5,224L221.5,64L258.5,64L258.5,256L295.4,256L295.4,64L332.3,64L332.3,32L369.2,32L369.2,224L406.2,224L406.2,192L443.1,192L443.1,96L480,96L480,320L516.9,320L516.9,256L553.8,256L553.8,64L590.8,64L590.8,0L627.7,0L627.7,320L664.6,320L664.6,224L701.5,224L701.5,256L738.5,256L738.5,0L775.4,0L775.4,96L812.3,96L812.3,288L849.2,288L849.2,256L886.2,256L886.2,128L923.1,128L923.1,32L960,32L960,160L996.9,160L996.9,288L1033.8,288L1033.8,288L1070.8,288L1070.8,160L1107.7,160L1107.7,160L1144.6,160L1144.6,128L1181.5,128L1181.5,256L1218.5,256L1218.5,0L1255.4,0L1255.4,96L1292.3,96L1292.3,192L1329.2,192L1329.2,0L1366.2,0L1366.2,320L1403.1,320L1403.1,192L1440,192L1440,0L1403.1,0L1403.1,0L1366.2,0L1366.2,0L1329.2,0L1329.2,0L1292.3,0L1292.3,0L1255.4,0L1255.4,0L1218.5,0L1218.5,0L1181.5,0L1181.5,0L1144.6,0L1144.6,0L1107.7,0L1107.7,0L1070.8,0L1070.8,0L1033.8,0L1033.8,0L996.9,0L996.9,0L960,0L960,0L923.1,0L923.1,0L886.2,0L886.2,0L849.2,0L849.2,0L812.3,0L812.3,0L775.4,0L775.4,0L738.5,0L738.5,0L701.5,0L701.5,0L664.6,0L664.6,0L627.7,0L627.7,0L590.8,0L590.8,0L553.8,0L553.8,0L516.9,0L516.9,0L480,0L480,0L443.1,0L443.1,0L406.2,0L406.2,0L369.2,0L369.2,0L332.3,0L332.3,0L295.4,0L295.4,0L258.5,0L258.5,0L221.5,0L221.5,0L184.6,0L184.6,0L147.7,0L147.7,0L110.8,0L110.8,0L73.8,0L73.8,0L36.9,0L36.9,0L0,0L0,0Z"></path></svg>